# Blender 4.0.2
# www.blender.org
mtllib 3D_Pistol_2.mtl
o Plane
v -0.018833 0.000000 0.125000
v 0.018833 0.000000 0.125000
v -0.008616 0.009443 -0.125000
v 0.008616 0.009443 -0.125000
v -0.009042 0.032341 0.115210
v 0.009042 0.032341 0.115210
v -0.005023 0.032341 -0.115210
v 0.005023 0.032341 -0.115210
v -0.013376 0.000000 0.115831
v 0.013376 0.000000 0.115831
v -0.013376 0.000000 -0.115831
v 0.013376 0.000000 -0.115831
v 0.013376 -0.002385 -0.115831
v -0.017836 -0.001919 -0.126097
v -0.013376 -0.002385 -0.115831
v 0.013376 -0.002385 0.115831
v -0.013376 -0.002385 0.115831
v 0.018176 -0.002385 -0.122216
v -0.018176 -0.002385 -0.122216
v 0.018176 -0.002385 0.134132
v -0.018176 -0.002385 0.134132
v 0.018176 -0.007218 -0.115732
v -0.018176 -0.007218 -0.115732
v 0.018176 -0.009026 0.123792
v -0.018176 -0.009026 0.123792
v 0.018176 -0.014916 -0.089127
v -0.018176 -0.014916 -0.089127
v 0.018176 -0.013426 0.108508
v -0.018176 -0.013426 0.108508
v 0.018176 -0.021652 0.106157
v -0.018176 -0.021652 0.106157
v 0.018176 -0.035949 0.108539
v -0.018176 -0.035949 0.108539
v 0.018176 -0.127820 0.152754
v -0.018176 -0.127820 0.152754
v 0.018176 -0.139734 0.078357
v -0.018176 -0.139734 0.078357
v 0.004765 -0.026257 0.020031
v -0.004765 -0.026257 0.020031
v 0.018176 -0.016122 -0.047933
v -0.018176 -0.016122 -0.047933
v 0.018176 -0.008424 0.043951
v 0.018176 -0.007821 -0.035890
v -0.018176 -0.007821 -0.035890
v -0.018176 -0.008424 0.043951
v -0.018176 -0.008725 0.083871
v 0.018176 -0.008725 0.083871
v 0.018176 -0.018760 -0.031405
v 0.004102 -0.023628 0.009377
v -0.004102 -0.023628 0.009377
v -0.018176 -0.018760 -0.031405
v 0.006224 -0.051624 -0.032184
v 0.006224 -0.059815 -0.020557
v -0.006224 -0.059815 -0.020557
v -0.006224 -0.051624 -0.032184
v -0.006224 -0.050802 -0.019067
v 0.006224 -0.050802 -0.019067
v -0.018176 -0.064642 0.046636
v -0.018176 -0.054644 0.042412
v 0.018176 -0.054644 0.042412
v 0.018176 -0.064643 0.046636
v 0.006059 -0.064643 0.046636
v -0.006059 -0.064643 0.046636
v 0.006059 -0.018760 -0.031405
v -0.006059 -0.018760 -0.031405
v -0.006059 -0.054644 0.042412
v 0.006059 -0.054644 0.042412
v -0.006059 -0.021084 -0.016844
v 0.006059 -0.021084 -0.016844
v -0.006141 -0.035992 -0.032328
v 0.006141 -0.035992 -0.032328
v 0.018176 -0.021084 -0.016844
v 0.018176 -0.028800 0.031495
v -0.018176 -0.028800 0.031495
v -0.018176 -0.021084 -0.016844
v 0.004102 -0.032853 0.017975
v -0.004765 -0.034272 0.024159
v 0.004765 -0.034272 0.024159
v -0.004102 -0.032853 0.017975
v 0.004102 -0.044864 0.017975
v -0.004765 -0.046283 0.024159
v 0.004765 -0.046283 0.024159
v -0.004102 -0.044864 0.017975
v 0.004102 -0.050087 0.015616
v -0.004102 -0.050087 0.015616
v -0.008616 0.022899 -0.125000
v -0.018833 0.032341 0.125000
v 0.018833 0.032341 0.125000
v 0.008616 0.022899 -0.125000
v -0.005023 0.032341 -0.100374
v -0.009042 0.032341 0.099454
v 0.009042 0.032341 0.099454
v 0.005023 0.032341 -0.100374
v -0.009042 0.039182 0.115210
v 0.009042 0.039182 0.115210
v -0.009042 0.039182 0.099454
v 0.009042 0.039182 0.099454
v 0.000000 0.035384 0.115210
v 0.000000 0.035384 0.099454
v 0.000000 0.038039 -0.115210
v 0.000000 0.038039 -0.100374
v 0.018833 0.000000 -0.125000
v -0.018833 0.000000 -0.125000
v 0.018833 0.032341 -0.125000
v -0.018833 0.032341 -0.125000
v 0.000000 0.006686 -0.125000
v 0.000000 0.025655 -0.125000
v -0.011233 0.016171 -0.125000
v 0.011233 0.016171 -0.125000
v -0.008616 0.009443 -0.135396
v 0.008616 0.009443 -0.135396
v -0.008616 0.022899 -0.135396
v 0.008616 0.022899 -0.135396
v 0.000000 0.006686 -0.135396
v 0.000000 0.025655 -0.135396
v -0.011233 0.016171 -0.135396
v 0.011233 0.016171 -0.135396
v 0.000000 0.016171 -0.135396
vn -0.0000 -1.0000 -0.0000
vn -0.0000 -0.0000 1.0000
vn -0.9320 0.3625 -0.0000
vn 1.0000 -0.0000 -0.0000
vn -1.0000 -0.0000 -0.0000
vn -0.0000 -0.0000 -1.0000
vn -0.0000 1.0000 -0.0000
vn -0.0000 -0.8414 0.5404
vn -0.0000 -0.8017 -0.5977
vn -0.0000 -0.9606 -0.2779
vn -0.0000 -0.9610 0.2766
vn -0.0000 -0.2749 0.9615
vn -0.0000 0.1644 0.9864
vn -0.0000 0.4337 0.9011
vn -0.0000 -0.9874 0.1581
vn -0.0000 -0.9996 -0.0293
vn -0.0000 -0.8175 -0.5759
vn -0.0000 -0.3891 -0.9212
vn -0.0000 -0.6818 -0.7315
vn -0.0000 -0.9875 -0.1576
vn -1.0000 0.0004 0.0026
vn 1.0000 0.0004 0.0026
vn 1.0000 0.0034 -0.0002
vn 1.0000 0.0052 0.0003
vn -0.0000 -0.0092 -1.0000
vn -1.0000 0.0034 -0.0002
vn -0.0000 0.0535 -0.9986
vn -1.0000 0.0052 0.0003
vn -0.0000 -0.9974 -0.0717
vn -0.0000 0.9981 0.0624
vn -0.0918 -0.9810 -0.1710
vn 0.0918 -0.9810 -0.1710
vn -0.0000 -0.9953 -0.0965
vn -0.0000 -0.9763 -0.2166
vn -0.0000 -0.0746 0.9972
vn 0.9930 -0.0702 -0.0951
vn -0.0000 0.4579 0.8890
vn -0.9930 -0.0702 -0.0951
vn -0.9943 -0.0000 -0.1066
vn 0.9943 -0.0000 -0.1066
vn -0.9944 0.0436 -0.0966
vn 0.9944 0.0436 -0.0966
vn -0.0000 -0.9135 0.4068
vn -0.0000 0.4117 -0.9113
vn -0.3872 0.9220 -0.0000
vn 0.3872 0.9220 -0.0000
vn -0.7501 0.6613 -0.0000
vn 0.7501 0.6613 -0.0000
vn 0.9320 0.3625 -0.0000
vn -0.3047 -0.9525 -0.0000
vn 0.3047 0.9525 -0.0000
vn 0.9320 -0.3625 -0.0000
vn -0.3047 0.9525 -0.0000
vn -0.9320 -0.3625 -0.0000
vn 0.3047 -0.9525 -0.0000
vt 0.365178 0.852639
vt 0.374268 0.852639
vt 0.372951 0.854851
vt 0.366495 0.854851
vt 0.128489 0.903007
vt 0.128489 0.920805
vt 0.121775 0.920805
vt 0.125503 0.911906
vt 0.121775 0.903007
vt 0.091541 0.925940
vt 0.091615 0.911185
vt 0.114419 0.911185
vt 0.114345 0.925940
vt 0.403002 0.865799
vt 0.403002 0.901384
vt 0.372526 0.901384
vt 0.372526 0.865799
vt 0.374268 0.912968
vt 0.374268 0.852639
vt 0.382074 0.852639
vt 0.382073 0.912968
vt 0.389879 0.852639
vt 0.389879 0.912968
vt 0.382074 0.912968
vt 0.116308 0.890372
vt 0.116308 0.869818
vt 0.118139 0.869818
vt 0.118139 0.890372
vt 0.374268 0.912966
vt 0.365178 0.912966
vt 0.366495 0.910754
vt 0.372951 0.910754
vt 0.124519 0.859673
vt 0.124518 0.951685
vt 0.123571 0.951685
vt 0.123572 0.859673
vt 0.114480 0.890372
vt 0.114480 0.869818
vt 0.124520 0.951685
vt 0.125466 0.859673
vt 0.125467 0.951685
vt 0.154038 0.920887
vt 0.154038 0.837550
vt 0.155764 0.835253
vt 0.155764 0.927470
vt 0.144414 0.920887
vt 0.142687 0.927470
vt 0.144414 0.837550
vt 0.142687 0.835253
vt 0.043866 0.927464
vt 0.043865 0.835253
vt 0.045604 0.837585
vt 0.045821 0.866305
vt 0.046038 0.895024
vt 0.046147 0.909384
vt 0.046256 0.923744
vt 0.129053 0.867232
vt 0.129053 0.903007
vt 0.118975 0.903007
vt 0.118975 0.867232
vt 0.142686 0.927464
vt 0.140297 0.923744
vt 0.140405 0.909384
vt 0.140514 0.895024
vt 0.140731 0.866305
vt 0.140948 0.837585
vt 0.169314 0.925178
vt 0.182392 0.925178
vt 0.182392 0.927536
vt 0.169314 0.927536
vt 0.182392 0.937147
vt 0.169314 0.937147
vt 0.104000 0.903007
vt 0.104000 0.867232
vt 0.155764 0.925187
vt 0.168842 0.925187
vt 0.168842 0.928077
vt 0.155764 0.928077
vt 0.168842 0.933269
vt 0.155764 0.933269
vt 0.168842 0.967383
vt 0.155764 0.967383
vt 0.146069 0.926836
vt 0.118139 0.926836
vt 0.146069 0.869818
vt 0.182392 0.951971
vt 0.169314 0.951971
vt 0.088990 0.934162
vt 0.055941 0.918258
vt 0.093276 0.907401
vt 0.053369 0.890544
vt 0.062666 0.894471
vt 0.066263 0.895990
vt 0.097562 0.934162
vt 0.093276 0.907401
vt 0.130612 0.918258
vt 0.133184 0.890544
vt 0.120290 0.895990
vt 0.123887 0.894471
vt 0.135755 0.917401
vt 0.138179 0.847155
vt 0.137745 0.861973
vt 0.135960 0.873156
vt 0.136796 0.867918
vt 0.048374 0.847155
vt 0.048807 0.861973
vt 0.049757 0.867918
vt 0.050593 0.873156
vt 0.050797 0.917401
vt 0.047838 0.918247
vt 0.138714 0.918247
vt 0.465289 0.818343
vt 0.465289 0.827368
vt 0.455726 0.827368
vt 0.455726 0.818343
vt 0.142687 0.966960
vt 0.142687 0.940229
vt 0.147046 0.940229
vt 0.151405 0.940229
vt 0.155764 0.940229
vt 0.155764 0.966960
vt 0.462721 0.815756
vt 0.470795 0.815756
vt 0.470795 0.824629
vt 0.462721 0.824629
vt 0.142687 0.936670
vt 0.155764 0.936670
vt 0.151405 0.936670
vt 0.147046 0.936670
vt 0.182392 0.957930
vt 0.178032 0.957930
vt 0.173673 0.957930
vt 0.169314 0.957930
vt 0.423717 0.861468
vt 0.429289 0.863511
vt 0.410508 0.903032
vt 0.406208 0.897444
vt 0.391754 0.864044
vt 0.397326 0.862001
vt 0.414834 0.897976
vt 0.410535 0.903565
vt 0.392662 0.854850
vt 0.401451 0.849763
vt 0.411487 0.844768
vt 0.414834 0.853741
vt 0.423919 0.843600
vt 0.414356 0.843600
vt 0.414419 0.831595
vt 0.423856 0.831595
vt 0.428381 0.854317
vt 0.419591 0.849231
vt 0.423793 0.818343
vt 0.414483 0.818343
vt 0.406208 0.853209
vt 0.409556 0.844235
vt 0.465162 0.879042
vt 0.455852 0.879042
vt 0.404793 0.818343
vt 0.414356 0.818343
vt 0.414229 0.865590
vt 0.404920 0.865590
vt 0.182392 0.963180
vt 0.178032 0.963180
vt 0.173673 0.963180
vt 0.169314 0.963180
vt 0.177567 0.976472
vt 0.177328 0.972625
vt 0.182392 0.980609
vt 0.174377 0.972625
vt 0.174139 0.976472
vt 0.169314 0.980609
vt 0.438709 0.844768
vt 0.438872 0.815756
vt 0.450797 0.815756
vt 0.450959 0.844768
vt 0.450959 0.815756
vt 0.460578 0.820682
vt 0.462721 0.829292
vt 0.457111 0.826535
vt 0.462721 0.841640
vt 0.472099 0.841640
vt 0.472099 0.849801
vt 0.462721 0.849801
vt 0.453102 0.847436
vt 0.462721 0.842510
vt 0.456569 0.853288
vt 0.450959 0.856045
vt 0.472099 0.861590
vt 0.462721 0.861590
vt 0.470795 0.836446
vt 0.462721 0.836446
vt 0.459282 0.864793
vt 0.453671 0.867550
vt 0.460009 0.840796
vt 0.454398 0.838040
vt 0.462721 0.869263
vt 0.450959 0.842510
vt 0.420876 0.857494
vt 0.420876 0.864816
vt 0.414356 0.864307
vt 0.414356 0.858004
vt 0.470795 0.841640
vt 0.362815 0.910610
vt 0.362815 0.906807
vt 0.361845 0.858582
vt 0.361845 0.855001
vt 0.365178 0.912972
vt 0.358450 0.910610
vt 0.356088 0.912972
vt 0.359420 0.855001
vt 0.359420 0.858582
vt 0.358450 0.906807
vt 0.356088 0.852639
vt 0.067681 0.904299
vt 0.067681 0.919803
vt 0.060950 0.919803
vt 0.060950 0.904299
vt 0.135782 0.896243
vt 0.135782 0.914041
vt 0.129053 0.914041
vt 0.132789 0.905142
vt 0.129053 0.896243
vt 0.067681 0.919803
vt 0.067681 0.904299
vt 0.074413 0.904299
vt 0.074413 0.919803
vt 0.104713 0.902022
vt 0.116817 0.902022
vt 0.116804 0.908970
vt 0.104699 0.908970
vt 0.104699 0.895075
vt 0.116804 0.895075
vt 0.080016 0.914186
vt 0.080016 0.904299
vt 0.085622 0.909243
vt 0.104000 0.904363
vt 0.104000 0.918963
vt 0.098396 0.918899
vt 0.098396 0.904299
vt 0.074413 0.918963
vt 0.074413 0.904363
vt 0.080016 0.918899
vt 0.130190 0.923927
vt 0.130190 0.914041
vt 0.135782 0.918984
vt 0.387955 0.928610
vt 0.389565 0.923575
vt 0.387955 0.918540
vt 0.393471 0.912569
vt 0.393471 0.934580
vt 0.380094 0.918540
vt 0.378484 0.923575
vt 0.380094 0.928610
vt 0.374578 0.934580
vt 0.374578 0.912569
vt 0.384025 0.930139
vt 0.384025 0.917010
vt 0.114338 0.910522
vt 0.114412 0.925277
vt 0.091608 0.925277
vt 0.091534 0.910522
vt 0.102496 0.925828
vt 0.102407 0.944730
vt 0.079604 0.944730
vt 0.079693 0.925828
vt 0.102524 0.925828
vt 0.102496 0.906926
vt 0.125302 0.906926
vt 0.125329 0.925828
vt 0.114338 0.940041
vt 0.091534 0.940041
vt 0.102496 0.944730
vt 0.125302 0.944730
vt 0.091615 0.940704
vt 0.114419 0.940704
vt 0.102407 0.906926
vt 0.079604 0.906926
vt 0.094260 0.950090
vt 0.081955 0.940127
vt 0.101766 0.926618
vt 0.121578 0.932954
vt 0.110063 0.949117
vt 0.093470 0.904120
vt 0.109273 0.903146
vt 0.081955 0.920282
vt 0.121578 0.913109
s 0
usemtl Material.001
f 103/1/1 102/2/1 12/3/1 11/4/1
f 5/5/2 6/6/2 95/7/2 98/8/2 94/9/2
f 108/10/3 86/11/3 112/12/3 116/13/3
f 1/14/2 2/15/2 88/16/2 87/17/2
f 2/18/4 102/19/4 104/20/4 88/21/4
f 103/22/5 1/23/5 87/24/5 105/20/5
f 11/25/6 12/26/6 13/27/6 15/28/6
f 2/29/1 1/30/1 9/31/1 10/32/1
f 102/2/1 2/29/1 10/32/1 12/3/1
f 1/30/1 103/1/1 11/4/1 9/31/1
f 12/33/4 10/34/4 16/35/4 13/36/4
f 10/37/2 9/38/2 17/26/2 16/25/2
f 9/39/5 11/33/5 15/40/5 17/41/5
f 17/42/7 15/43/7 19/44/7 21/45/7
f 16/46/7 17/42/7 21/45/7 20/47/7
f 15/43/7 13/48/7 18/49/7 19/44/7
f 13/48/7 16/46/7 20/47/7 18/49/7
f 21/50/5 19/51/5 23/52/5 44/53/5 45/54/5 46/55/5 25/56/5
f 20/57/8 21/58/8 25/59/8 24/60/8
f 18/49/4 20/61/4 24/62/4 47/63/4 42/64/4 43/65/4 22/66/4
f 19/67/9 18/68/9 22/69/9 23/70/9
f 23/70/10 22/69/10 26/71/10 27/72/10
f 24/60/11 25/59/11 29/73/11 28/74/11
f 28/75/12 29/76/12 31/77/12 30/78/12
f 30/78/13 31/77/13 33/79/13 32/80/13
f 32/80/14 33/79/14 35/81/14 34/82/14
f 34/83/15 35/84/15 37/27/15 36/85/15
f 26/71/16 40/86/16 41/87/16 27/72/16
f 35/88/5 33/89/5 37/90/5
f 37/90/5 33/89/5 74/91/5 59/92/5 58/93/5
f 34/94/4 36/95/4 32/96/4
f 73/97/4 32/96/4 36/95/4 61/98/4 60/99/4
f 30/100/4 32/96/4 73/97/4
f 43/65/4 26/101/4 22/66/4
f 40/102/4 26/101/4 43/65/4
f 73/97/4 72/103/4 48/104/4 40/102/4 43/65/4
f 42/64/4 73/97/4 43/65/4
f 73/97/4 47/63/4 30/100/4
f 47/63/4 73/97/4 42/64/4
f 23/52/5 27/105/5 44/53/5
f 41/106/5 44/53/5 27/105/5
f 41/106/5 51/107/5 75/108/5 74/91/5 44/53/5
f 44/53/5 74/91/5 45/54/5
f 45/54/5 74/91/5 46/55/5
f 46/55/5 74/91/5 31/109/5
f 33/89/5 31/109/5 74/91/5
f 31/109/5 29/110/5 46/55/5
f 46/55/5 29/110/5 25/56/5
f 24/62/4 28/111/4 47/63/4
f 28/111/4 30/100/4 47/63/4
f 52/112/17 53/113/17 54/114/17 55/115/17
f 37/116/18 58/117/18 63/118/18 62/119/18 61/120/18 36/121/18
f 50/122/19 49/123/19 76/124/19 79/125/19
f 59/126/18 74/47/18 73/45/18 60/127/18 67/128/18 66/129/18
f 41/87/20 40/86/20 48/130/20 64/131/20 65/132/20 51/133/20
f 61/120/18 62/119/18 67/128/18 60/127/18
f 59/126/18 66/129/18 63/118/18 58/117/18
f 56/134/21 54/135/21 63/136/21 66/137/21
f 53/138/22 57/139/22 67/140/22 62/141/22
f 52/142/23 71/143/23 57/139/23 53/138/23
f 64/144/24 69/145/24 57/139/24 71/143/24
f 52/146/25 55/147/25 70/148/25 71/149/25
f 55/150/26 54/135/26 56/134/26 70/151/26
f 64/152/27 71/149/27 70/148/27 65/153/27
f 68/154/28 65/155/28 70/151/28 56/134/28
f 54/114/29 53/113/29 62/156/29 63/157/29
f 57/158/30 56/159/30 66/160/30 67/161/30
f 72/162/20 69/163/20 64/131/20 48/130/20
f 51/133/20 65/132/20 68/164/20 75/165/20
f 38/166/31 49/167/31 72/162/31 73/168/31
f 50/169/32 39/170/32 74/171/32 75/165/32
f 49/167/33 69/163/33 72/162/33
f 39/170/34 38/166/34 73/168/34 74/171/34
f 50/169/33 75/165/33 68/164/33
f 49/167/33 50/169/33 68/164/33 69/163/33
f 57/172/35 69/173/35 68/174/35 56/175/35
f 49/176/36 38/177/36 78/178/36 76/179/36
f 38/180/37 39/181/37 77/182/37 78/183/37
f 39/184/38 50/185/38 79/186/38 77/187/38
f 78/183/2 77/182/2 81/188/2 82/189/2
f 79/125/6 76/124/6 80/190/6 83/191/6
f 77/187/39 79/186/39 83/192/39 81/193/39
f 76/179/40 78/178/40 82/194/40 80/195/40
f 83/192/41 85/196/41 81/193/41
f 80/195/42 82/194/42 84/197/42
f 82/198/43 81/199/43 85/200/43 84/201/43
f 83/191/44 80/190/44 84/202/44 85/180/44
f 5/203/7 91/204/7 90/205/7 7/206/7 105/1/7 87/207/7
f 6/208/7 5/203/7 87/207/7 88/209/7
f 8/210/7 93/211/7 92/212/7 6/208/7 88/209/7 104/213/7
f 7/206/7 8/210/7 104/213/7 105/1/7
f 91/214/5 5/215/5 94/216/5 96/217/5
f 91/204/7 92/212/7 93/211/7 90/205/7
f 92/218/6 91/219/6 96/220/6 99/221/6 97/222/6
f 6/223/4 92/224/4 97/225/4 95/226/4
f 99/227/45 98/228/45 95/229/45 97/230/45
f 96/231/46 94/232/46 98/228/46 99/227/46
f 8/233/6 7/234/6 100/235/6
f 7/236/47 90/237/47 101/238/47 100/239/47
f 93/240/48 8/241/48 100/234/48 101/242/48
f 90/243/2 93/244/2 101/245/2
f 3/246/6 106/247/6 4/248/6 102/249/6 103/250/6
f 89/251/6 107/252/6 86/253/6 105/254/6 104/255/6
f 86/253/6 108/256/6 3/246/6 103/250/6 105/254/6
f 4/248/6 109/257/6 89/251/6 104/255/6 102/249/6
f 89/258/49 109/259/49 117/260/49 113/261/49
f 106/262/50 3/263/50 110/264/50 114/265/50
f 107/266/51 89/267/51 113/268/51 115/269/51
f 109/259/52 4/270/52 111/271/52 117/260/52
f 86/272/53 107/266/53 115/269/53 112/273/53
f 3/274/54 108/10/54 116/13/54 110/275/54
f 4/276/55 106/262/55 114/265/55 111/277/55
f 116/278/6 112/279/6 118/280/6
f 114/281/6 110/282/6 118/280/6
f 113/283/6 117/284/6 118/280/6
f 115/285/6 113/283/6 118/280/6
f 117/284/6 111/286/6 118/280/6
f 112/279/6 115/285/6 118/280/6
f 110/282/6 116/278/6 118/280/6
f 111/286/6 114/281/6 118/280/6
