# This file uses centimeters as units for non-parametric coordinates.

mtllib THEATRE WALLS.mtl
g default
v -15.230250 0.110723 -10.036821
v 15.230250 0.110723 -10.036821
v -15.230250 16.137484 -10.036821
v 15.230250 16.137484 -10.036821
v 15.230250 16.137484 3.821119
v -15.230250 16.137484 3.821119
v -31.292694 16.137484 3.821119
v -53.867691 16.137484 99.738594
v 31.292696 16.137484 3.821119
v 53.867691 16.137484 99.738594
v -15.230250 44.616020 3.821119
v -31.292694 44.616020 3.821119
v -53.867691 44.616020 99.738594
v 15.230250 44.616020 3.821119
v 31.292696 44.616020 3.821119
v 53.867691 44.616020 99.738594
v -53.867691 0.110723 99.738594
v -31.292694 0.110723 3.821119
v -15.230250 0.110723 3.821119
v 15.230250 0.110723 3.821119
v 31.292696 0.110723 3.821119
v 53.867691 0.110723 99.738594
vt 0.484586 0.792197
vt 0.484586 0.011796
vt 0.614982 0.011796
vt 0.614982 0.792197
vt 0.987837 0.629473
vt 0.876597 0.629473
vt 0.876597 0.500823
vt 0.987837 0.500823
vt 0.615256 0.011796
vt 0.745652 0.011796
vt 0.745652 0.792197
vt 0.615256 0.792197
vt 0.404173 0.920848
vt 0.404173 0.792197
vt 0.515414 0.792197
vt 0.515414 0.920848
vt 0.615256 0.792197
vt 0.743906 0.792197
vt 0.743906 0.921134
vt 0.615256 0.921134
vt 0.273503 0.921132
vt 0.273503 0.792194
vt 0.402153 0.792194
vt 0.402153 0.921132
vt 0.012163 0.896502
vt 0.012163 0.792194
vt 0.272929 0.792194
vt 0.272929 0.896502
vt 0.874577 0.256309
vt 0.874577 0.500822
vt 0.745926 0.500822
vt 0.745926 0.256309
vt 0.876597 0.256309
vt 0.987837 0.256309
vt 0.987837 0.500823
vt 0.876597 0.500823
vt 0.012163 0.792194
vt 0.012163 0.011796
vt 0.243868 0.011796
vt 0.243868 0.792194
vt 0.745926 0.729426
vt 0.874863 0.729426
vt 0.874863 0.958029
vt 0.745926 0.958029
vt 0.745926 0.256309
vt 0.745926 0.011796
vt 0.974530 0.011796
vt 0.974530 0.256309
vt 0.745926 0.500822
vt 0.874863 0.500822
vt 0.874863 0.729426
vt 0.745926 0.729426
vt 0.248374 0.792194
vt 0.248374 0.011796
vt 0.480080 0.011796
vt 0.480080 0.792194
vn 0.973403 0.000000 0.229099
vn 0.973403 0.000000 0.229099
vn 0.973403 0.000000 0.229099
vn 0.973403 0.000000 0.229099
vn -1.000000 0.000000 0.000000
vn -1.000000 0.000000 0.000000
vn -1.000000 0.000000 0.000000
vn -1.000000 0.000000 0.000000
vn -0.973403 0.000000 0.229099
vn -0.973403 0.000000 0.229099
vn -0.973403 0.000000 0.229099
vn -0.973403 0.000000 0.229099
vn 1.000000 0.000000 0.000000
vn 1.000000 0.000000 0.000000
vn 1.000000 0.000000 0.000000
vn 1.000000 0.000000 0.000000
vn 0.000000 0.000000 1.000000
vn 0.000000 0.000000 1.000000
vn 0.000000 0.000000 1.000000
vn 0.000000 0.000000 1.000000
vn 0.000000 0.000000 1.000000
vn 0.000000 0.000000 1.000000
vn 0.000000 0.000000 1.000000
vn 0.000000 0.000000 1.000000
vn 0.000000 1.000000 0.000000
vn 0.000000 1.000000 0.000000
vn 0.000000 1.000000 0.000000
vn 0.000000 1.000000 0.000000
vn 0.000000 0.000000 1.000000
vn 0.000000 0.000000 1.000000
vn 0.000000 0.000000 1.000000
vn 0.000000 0.000000 1.000000
vn 0.000000 -1.000000 0.000000
vn 0.000000 -1.000000 0.000000
vn 0.000000 -1.000000 0.000000
vn 0.000000 -1.000000 0.000000
vn 0.000000 0.000000 1.000000
vn 0.000000 0.000000 1.000000
vn 0.000000 0.000000 1.000000
vn 0.000000 0.000000 1.000000
vn 0.973403 0.000000 0.229099
vn 0.973403 0.000000 0.229099
vn 0.973403 0.000000 0.229099
vn 0.973403 0.000000 0.229099
vn 0.000000 0.000000 1.000000
vn 0.000000 0.000000 1.000000
vn 0.000000 0.000000 1.000000
vn 0.000000 0.000000 1.000000
vn -0.973403 0.000000 0.229099
vn -0.973403 0.000000 0.229099
vn -0.973403 0.000000 0.229099
vn -0.973403 0.000000 0.229099
vn 0.000000 0.000000 1.000000
vn 0.000000 0.000000 1.000000
vn 0.000000 0.000000 1.000000
vn 0.000000 0.000000 1.000000
s off
g Walls1 THEATRE
usemtl lambert3SG
f 17/1/1 18/2/2 7/3/3 8/4/4
f 5/5/5 4/6/6 2/7/7 20/8/8
f 22/9/9 10/10/10 9/11/11 21/12/12
f 6/13/13 19/14/14 1/15/15 3/16/16
f 19/17/17 6/18/18 7/19/19 18/20/20
f 20/21/21 21/22/22 9/23/23 5/24/24
usemtl initialShadingGroup
f 1/25/25 19/26/26 20/27/27 2/28/28
usemtl lambert3SG
f 4/29/29 3/30/30 1/31/31 2/32/32
f 4/33/33 5/34/34 6/35/35 3/36/36
f 7/41/37 6/42/38 11/43/39 12/44/40
f 8/37/41 7/38/42 12/39/43 13/40/44
f 5/49/45 9/50/46 15/51/47 14/52/48
f 9/53/49 10/54/50 16/55/51 15/56/52
f 6/45/53 5/46/54 14/47/55 11/48/56
