# Blender 4.0.2
# www.blender.org
mtllib XDcola.mtl
o Circle
v 0.000000 0.000000 -0.250000
v -0.125000 0.000000 -0.216506
v -0.216506 0.000000 -0.125000
v -0.250000 0.000000 0.000000
v -0.216506 0.000000 0.125000
v -0.125000 0.000000 0.216506
v 0.000000 0.000000 0.250000
v 0.125000 0.000000 0.216506
v 0.216506 0.000000 0.125000
v 0.250000 0.000000 0.000000
v 0.216506 0.000000 -0.125000
v 0.125000 0.000000 -0.216506
v 0.000000 0.438639 -0.250000
v -0.125000 0.438639 -0.216506
v -0.216506 0.438639 -0.125000
v -0.250000 0.438639 0.000000
v -0.216506 0.438639 0.125000
v -0.125000 0.438639 0.216506
v 0.000000 0.438639 0.250000
v 0.125000 0.438639 0.216506
v 0.216506 0.438639 0.125000
v 0.250000 0.438639 0.000000
v 0.216506 0.438639 -0.125000
v 0.125000 0.438639 -0.216506
v -0.000000 0.540196 -0.175614
v -0.087807 0.540196 -0.152087
v -0.152087 0.540196 -0.087807
v -0.175614 0.540196 0.000000
v -0.152087 0.540196 0.087807
v -0.087807 0.540196 0.152087
v -0.000000 0.540196 0.175614
v 0.087807 0.540196 0.152087
v 0.152087 0.540196 0.087807
v 0.175614 0.540196 0.000000
v 0.152087 0.540196 -0.087807
v 0.087807 0.540196 -0.152087
v 0.000000 0.597300 -0.134857
v -0.067428 0.597300 -0.116789
v -0.116789 0.597300 -0.067428
v -0.134857 0.597300 0.000000
v -0.116789 0.597300 0.067428
v -0.067428 0.597300 0.116789
v 0.000000 0.597300 0.134857
v 0.067428 0.597300 0.116789
v 0.116789 0.597300 0.067428
v 0.134857 0.597300 0.000000
v 0.116789 0.597300 -0.067428
v 0.067428 0.597300 -0.116789
v -0.000000 0.799743 -0.080145
v -0.040072 0.799743 -0.069408
v -0.069408 0.799743 -0.040072
v -0.080145 0.799743 0.000000
v -0.069408 0.799743 0.040072
v -0.040072 0.799743 0.069408
v -0.000000 0.799743 0.080145
v 0.040072 0.799743 0.069408
v 0.069408 0.799743 0.040072
v 0.080145 0.799743 0.000000
v 0.069408 0.799743 -0.040072
v 0.040072 0.799743 -0.069408
v -0.000000 0.832329 -0.080145
v -0.040072 0.832329 -0.069408
v -0.069408 0.832329 -0.040072
v -0.080145 0.832329 0.000000
v -0.069408 0.832329 0.040072
v -0.040072 0.832329 0.069408
v -0.000000 0.832329 0.080145
v 0.040072 0.832329 0.069408
v 0.069408 0.832329 0.040072
v 0.080145 0.832329 0.000000
v 0.069408 0.832329 -0.040072
v 0.040072 0.832329 -0.069408
v 0.000000 0.832329 -0.096972
v -0.048486 0.832329 -0.083980
v -0.083980 0.832329 -0.048486
v -0.096972 0.832329 0.000000
v -0.083980 0.832329 0.048486
v -0.048486 0.832329 0.083980
v 0.000000 0.832329 0.096972
v 0.048486 0.832329 0.083980
v 0.083980 0.832329 0.048486
v 0.096972 0.832329 0.000000
v 0.083980 0.832329 -0.048486
v 0.048486 0.832329 -0.083980
v 0.000000 0.911925 -0.096972
v -0.048486 0.911925 -0.083980
v -0.083980 0.911925 -0.048486
v -0.096972 0.911925 0.000000
v -0.083980 0.911925 0.048486
v -0.048486 0.911925 0.083980
v 0.000000 0.911925 0.096972
v 0.048486 0.911925 0.083980
v 0.083980 0.911925 0.048486
v 0.096972 0.911925 0.000000
v 0.083980 0.911925 -0.048486
v 0.048486 0.911925 -0.083980
v 0.000000 0.911925 0.000000
v 0.201658 -0.277575 -0.116427
v 0.232855 -0.277575 0.000000
v 0.201658 -0.277575 0.116427
v 0.116427 -0.277575 0.201658
v 0.000000 -0.277575 0.232855
v -0.116427 -0.277575 0.201658
v -0.201658 -0.277575 0.116427
v -0.232855 -0.277575 0.000000
v -0.201658 -0.277575 -0.116427
v -0.116427 -0.277575 -0.201658
v 0.000000 -0.277575 -0.232855
v 0.116427 -0.277575 -0.201658
v 0.237389 -0.398953 -0.137057
v 0.251615 -0.368944 0.000000
v 0.237389 -0.398953 0.137057
v 0.137057 -0.398953 0.237389
v 0.000000 -0.368944 0.251615
v -0.137057 -0.398953 0.237389
v -0.237389 -0.398953 0.137057
v -0.251615 -0.368944 0.000000
v -0.237389 -0.398953 -0.137057
v -0.137057 -0.398953 -0.237389
v 0.000000 -0.368944 -0.251615
v 0.137057 -0.398953 -0.237389
v 0.000000 -0.416609 0.000000
v 0.212029 -0.490557 0.029372
v 0.228701 -0.493007 0.143675
v 0.143675 -0.493007 0.228701
v 0.029759 -0.490557 0.212077
v 0.027527 -0.493007 0.027527
v 0.179403 -0.553372 0.081236
v 0.176167 -0.553372 0.134097
v 0.139039 -0.553372 0.172843
v 0.091312 -0.553372 0.180673
v 0.096675 -0.553372 0.070772
v -0.212029 -0.490557 0.029372
v -0.228701 -0.493007 0.143675
v -0.143675 -0.493007 0.228701
v -0.029759 -0.490557 0.212077
v -0.027527 -0.493007 0.027527
v -0.179403 -0.553372 0.081236
v -0.176167 -0.553372 0.134097
v -0.139039 -0.553372 0.172843
v -0.091312 -0.553372 0.180673
v -0.096675 -0.553372 0.070772
v -0.212029 -0.490557 -0.029372
v -0.228701 -0.493007 -0.143675
v -0.143675 -0.493007 -0.228701
v -0.029759 -0.490557 -0.212077
v -0.027527 -0.493007 -0.027527
v -0.179403 -0.553372 -0.081236
v -0.176167 -0.553372 -0.134097
v -0.139039 -0.553372 -0.172843
v -0.091312 -0.553372 -0.180673
v -0.096675 -0.553372 -0.070772
v 0.212029 -0.490557 -0.029372
v 0.228701 -0.493007 -0.143675
v 0.143675 -0.493007 -0.228701
v 0.029759 -0.490557 -0.212077
v 0.027527 -0.493007 -0.027527
v 0.179403 -0.553372 -0.081236
v 0.176167 -0.553372 -0.134097
v 0.139039 -0.553372 -0.172843
v 0.091312 -0.553372 -0.180673
v 0.096675 -0.553372 -0.070772
vn -0.0000 -0.0307 0.9995
vn -0.0000 0.2967 0.9550
vn -0.4775 0.2967 0.8270
vn -0.4998 -0.0307 0.8656
vn -0.9995 -0.0307 -0.0000
vn -0.9550 0.2967 -0.0000
vn -0.8270 0.2967 -0.4775
vn -0.8656 -0.0307 -0.4998
vn 0.8656 -0.0307 -0.4998
vn 0.8270 0.2967 -0.4775
vn 0.9550 0.2967 -0.0000
vn 0.9995 -0.0307 -0.0000
vn 0.4998 -0.0307 0.8656
vn 0.4775 0.2967 0.8270
vn -0.8656 -0.0307 0.4998
vn -0.8270 0.2967 0.4775
vn 0.4998 -0.0307 -0.8656
vn 0.4775 0.2967 -0.8270
vn -0.4998 -0.0307 -0.8656
vn -0.4775 0.2967 -0.8270
vn -0.0000 0.2967 -0.9550
vn -0.0000 -0.0307 -0.9995
vn 0.8656 -0.0307 0.4998
vn 0.8270 0.2967 0.4775
vn -0.7015 0.5864 0.4050
vn -0.8100 0.5864 -0.0000
vn 0.4050 0.5864 -0.7015
vn 0.7015 0.5864 -0.4050
vn -0.4050 0.5864 -0.7015
vn -0.0000 0.5864 -0.8100
vn 0.7015 0.5864 0.4050
vn 0.4050 0.5864 0.7015
vn -0.4050 0.5864 0.7015
vn -0.7015 0.5864 -0.4050
vn 0.8100 0.5864 -0.0000
vn -0.0000 0.5864 0.8100
vn -0.7779 0.4394 0.4491
vn -0.8983 0.4394 -0.0000
vn 0.4491 0.4394 -0.7779
vn 0.7779 0.4394 -0.4491
vn -0.4491 0.4394 -0.7779
vn -0.0000 0.4394 -0.8983
vn 0.7779 0.4394 0.4491
vn 0.4491 0.4394 0.7779
vn -0.4491 0.4394 0.7779
vn -0.7779 0.4394 -0.4491
vn 0.8983 0.4394 -0.0000
vn -0.0000 0.4394 0.8983
vn 0.4955 0.1345 0.8582
vn -0.0000 0.1345 0.9909
vn -0.8582 0.1345 0.4955
vn -0.9909 0.1345 -0.0000
vn 0.4955 0.1345 -0.8582
vn 0.8582 0.1345 -0.4955
vn -0.4955 0.1345 -0.8582
vn -0.0000 0.1345 -0.9909
vn 0.8582 0.1345 0.4955
vn -0.4955 0.1345 0.8582
vn -0.8582 0.1345 -0.4955
vn 0.9909 0.1345 -0.0000
vn 0.3189 -0.7703 0.5523
vn -0.0000 -0.7703 0.6377
vn -0.5523 -0.7703 0.3189
vn -0.6377 -0.7703 -0.0000
vn 0.3189 -0.7703 -0.5523
vn 0.5523 -0.7703 -0.3189
vn -0.3189 -0.7703 -0.5523
vn -0.0000 -0.7703 -0.6377
vn 0.5523 -0.7703 0.3189
vn -0.3189 -0.7703 0.5523
vn -0.5523 -0.7703 -0.3189
vn 0.6377 -0.7703 -0.0000
vn -0.7572 -0.6532 -0.0000
vn -0.6557 -0.6532 -0.3786
vn 0.6557 -0.6532 -0.3786
vn 0.7572 -0.6532 -0.0000
vn 0.3786 -0.6532 0.6557
vn -0.0000 -0.6532 0.7572
vn -0.6557 -0.6532 0.3786
vn 0.3786 -0.6532 -0.6557
vn -0.3786 -0.6532 -0.6557
vn -0.0000 -0.6532 -0.7572
vn 0.6557 -0.6532 0.3786
vn -0.3786 -0.6532 0.6557
vn -0.7572 0.6532 -0.0000
vn -0.6557 0.6532 -0.3786
vn 0.6557 0.6532 -0.3786
vn 0.7572 0.6532 -0.0000
vn 0.3786 0.6532 0.6557
vn -0.0000 0.6532 0.7572
vn -0.6557 0.6532 0.3786
vn 0.3786 0.6532 -0.6557
vn -0.3786 0.6532 -0.6557
vn -0.0000 0.6532 -0.7572
vn 0.6557 0.6532 0.3786
vn -0.3786 0.6532 0.6557
vn -0.0000 1.0000 -0.0000
vn -0.8664 0.1236 0.4838
vn -0.4838 0.1236 0.8664
vn 0.4838 0.1236 -0.8664
vn -0.0000 0.1070 -0.9943
vn -0.4838 0.1236 -0.8664
vn -0.8664 0.1236 -0.4838
vn 0.8664 0.1236 0.4838
vn 0.9943 0.1070 -0.0000
vn -0.0000 0.1070 0.9943
vn -0.9943 0.1070 -0.0000
vn 0.8664 0.1236 -0.4838
vn 0.4838 0.1236 0.8664
vn 0.4020 0.0631 -0.9135
vn -0.0000 -0.0329 -0.9995
vn -0.9135 0.0631 0.4020
vn -0.4020 0.0631 0.9135
vn 0.4020 0.0631 0.9135
vn 0.9135 0.0631 0.4020
vn -0.4020 0.0631 -0.9135
vn 0.9135 0.0631 -0.4020
vn -0.9995 -0.0324 -0.0000
vn -0.0000 -0.0329 0.9995
vn 0.9995 -0.0324 -0.0000
vn -0.9135 0.0631 -0.4020
vn 0.5868 -0.4920 -0.6432
vn -0.5926 -0.5662 -0.5730
vn -0.0000 -1.0000 -0.0000
vn 0.3340 -0.3649 0.8691
vn 0.8696 -0.3631 0.3346
vn -0.6256 -0.5325 0.5701
vn -0.2542 -0.8865 -0.3866
vn -0.3037 -0.8681 0.3927
vn 0.2080 -0.8681 0.4508
vn 0.4679 -0.8635 0.1882
vn 0.3941 -0.8513 -0.3464
vn 0.6256 -0.5325 0.5701
vn 0.3037 -0.8681 0.3927
vn 0.2542 -0.8865 -0.3866
vn 0.5926 -0.5662 -0.5730
vn -0.3340 -0.3649 0.8691
vn -0.8696 -0.3631 0.3346
vn -0.4679 -0.8635 0.1882
vn -0.2080 -0.8681 0.4508
vn -0.5868 -0.4920 -0.6432
vn -0.3941 -0.8513 -0.3464
vn 0.6256 -0.5325 -0.5701
vn 0.5926 -0.5662 0.5730
vn 0.2542 -0.8865 0.3866
vn 0.3037 -0.8681 -0.3927
vn -0.3340 -0.3649 -0.8691
vn -0.2080 -0.8681 -0.4508
vn -0.4679 -0.8635 -0.1882
vn -0.8696 -0.3631 -0.3346
vn -0.5868 -0.4920 0.6432
vn -0.3941 -0.8513 0.3464
vn -0.6256 -0.5325 -0.5701
vn -0.3037 -0.8681 -0.3927
vn -0.2542 -0.8865 0.3866
vn -0.5926 -0.5662 0.5730
vn 0.3340 -0.3649 -0.8691
vn 0.8696 -0.3631 -0.3346
vn 0.4679 -0.8635 -0.1882
vn 0.2080 -0.8681 -0.4508
vn 0.5868 -0.4920 0.6432
vn 0.3941 -0.8513 0.3464
vt 0.096313 0.500000
vt 0.094206 0.250000
vt 0.170724 0.250000
vt 0.171888 0.500000
vt 0.504310 0.500000
vt 0.503151 0.250000
vt 0.578723 0.250000
vt 0.579882 0.500000
vt 0.639711 0.500000
vt 0.638570 0.250000
vt 0.706039 0.250000
vt 0.707198 0.500000
vt 0.028825 0.500000
vt 0.029965 0.250000
vt 0.436824 0.500000
vt 0.435683 0.250000
vt 0.376995 0.500000
vt 0.375836 0.250000
vt 0.439355 0.250000
vt 0.440401 0.500000
vt 0.233937 0.500000
vt 0.232796 0.250000
vt 0.300265 0.250000
vt 0.301424 0.500000
vt 0.782769 0.500000
vt 0.781610 0.250000
vt 0.845035 0.250000
vt 0.846175 0.500000
vt 0.234179 0.250000
vt 0.235326 0.500000
vt 0.642148 0.250000
vt 0.643288 0.500000
vt 0.458520 0.166019
vt 0.505914 0.164400
vt 0.356112 0.169331
vt 0.400665 0.169007
vt 0.255633 0.172064
vt 0.303027 0.170450
vt 0.761887 0.158972
vt 0.806440 0.158653
vt 0.151001 0.173927
vt 0.195554 0.173603
vt 0.559000 0.163282
vt 0.603553 0.162964
vt 0.708801 0.160090
vt 0.098366 0.174147
vt 0.661408 0.161709
vt 0.050521 0.176660
vt 0.473705 0.132691
vt 0.510099 0.131448
vt 0.347976 0.136633
vt 0.382189 0.136384
vt 0.270817 0.138732
vt 0.307211 0.137492
vt 0.753751 0.126279
vt 0.787964 0.126034
vt 0.142856 0.141233
vt 0.177077 0.140980
vt 0.550864 0.130589
vt 0.585077 0.130345
vt 0.712986 0.127137
vt 0.102754 0.143680
vt 0.676592 0.128380
vt 0.065705 0.143327
vt 0.084446 0.025042
vt 0.106075 0.024306
vt 0.492446 0.029066
vt 0.514075 0.028327
vt 0.335413 0.019199
vt 0.355746 0.019051
vt 0.289557 0.020446
vt 0.311187 0.019710
vt 0.741188 0.023507
vt 0.761521 0.023362
vt 0.130301 0.023795
vt 0.150634 0.023647
vt 0.538301 0.027817
vt 0.558634 0.027672
vt 0.716962 0.024017
vt 0.695333 0.024756
vt 0.084020 0.005991
vt 0.105650 0.005255
vt 0.492020 0.010015
vt 0.513649 0.009276
vt 0.334988 0.000148
vt 0.355320 0.000000
vt 0.289132 0.001395
vt 0.310761 0.000659
vt 0.740763 0.004455
vt 0.761096 0.004310
vt 0.129876 0.004744
vt 0.150209 0.004596
vt 0.537876 0.008766
vt 0.558209 0.008621
vt 0.716536 0.004966
vt 0.694907 0.005705
vt 0.304068 0.930108
vt 0.311028 0.937068
vt 0.285599 0.951749
vt 0.283052 0.942242
vt 0.225635 0.884825
vt 0.216127 0.882277
vt 0.230809 0.856848
vt 0.237769 0.863809
vt 0.283052 0.851675
vt 0.285599 0.842167
vt 0.311028 0.856848
vt 0.304068 0.863809
vt 0.316202 0.909092
vt 0.325709 0.911639
vt 0.225635 0.909092
vt 0.216127 0.911639
vt 0.258785 0.942242
vt 0.256237 0.951749
vt 0.230809 0.937068
vt 0.237769 0.930108
vt 0.258785 0.851675
vt 0.256237 0.842167
vt 0.316202 0.884825
vt 0.325709 0.882277
vt 0.911957 0.458027
vt 0.958504 0.458027
vt 0.958467 0.487347
vt 0.911920 0.487347
vt 0.911647 0.511946
vt 0.958194 0.511946
vt 0.958504 0.538130
vt 0.911957 0.538130
vt 0.911646 0.592049
vt 0.958194 0.592049
vt 0.958500 0.618233
vt 0.911953 0.618233
vt 0.911647 0.431844
vt 0.958194 0.431844
vt 0.911916 0.727655
vt 0.958464 0.727655
vt 0.958094 0.752254
vt 0.911546 0.752254
vt 0.911646 0.672151
vt 0.958194 0.672151
vt 0.958500 0.698335
vt 0.911953 0.698335
vt 0.911920 0.567449
vt 0.958467 0.567449
vt 0.958094 0.592049
vt 0.911546 0.592049
vt 0.911916 0.647552
vt 0.958464 0.647552
vt 0.958094 0.672151
vt 0.911546 0.672151
vt 0.958094 0.511946
vt 0.911546 0.511946
vt 0.325709 0.882277
vt 0.380500 0.896958
vt 0.325709 0.911639
vt 0.420610 0.937068
vt 0.435291 0.911639
vt 0.420610 0.856848
vt 0.395181 0.842167
vt 0.340390 0.856848
vt 0.395181 0.951749
vt 0.435291 0.882277
vt 0.365819 0.842167
vt 0.365819 0.951749
vt 0.340390 0.937068
vt 0.231129 0.650639
vt 0.172054 0.651069
vt 0.377166 0.646473
vt 0.306777 0.647956
vt 0.639128 0.639993
vt 0.580052 0.640415
vt 0.782939 0.636104
vt 0.712551 0.637587
vt 0.101666 0.652552
vt 0.509664 0.641897
vt 0.649710 0.639734
vt 0.038824 0.654692
vt 0.446823 0.644044
vt 0.436240 0.646043
vt 0.243935 0.650096
vt 0.842015 0.635682
vt 0.386231 0.716740
vt 0.305701 0.701178
vt 0.250661 0.720829
vt 0.181120 0.721335
vt 0.861547 0.705869
vt 0.792005 0.706366
vt 0.229395 0.721005
vt 0.455773 0.716233
vt 0.508587 0.695116
vt 0.432282 0.714948
vt 0.100589 0.705774
vt 0.024283 0.725601
vt 0.711474 0.690806
vt 0.635169 0.710638
vt 0.589118 0.710676
vt 0.658660 0.710179
vt 0.455773 0.811868
vt 0.522301 0.844554
vt 0.503591 0.948730
vt 0.455773 0.958691
vt 0.857003 0.760923
vt 0.798070 0.761343
vt 0.089931 0.777754
vt 0.022775 0.780784
vt 0.734655 0.761870
vt 0.131856 0.811995
vt 0.131856 0.958551
vt 0.085212 0.954697
vt 0.066550 0.850999
vt 1.000000 -0.000000
vt 1.000000 0.107961
vt 0.959861 0.082177
vt 0.963775 0.017933
vt 0.826392 0.797135
vt 0.799732 0.797344
vt 0.556678 0.864031
vt 0.547307 0.911733
vt 0.059332 0.815766
vt 0.032972 0.816591
vt 0.769096 0.798133
vt 0.935804 0.022175
vt 0.913814 0.044575
vt 0.911546 0.075471
vt 0.911546 0.107961
vt 0.947771 0.125894
vt 0.951686 0.190138
vt 0.911546 0.215922
vt 0.187185 0.776313
vt 0.246118 0.775884
vt 0.218006 0.812094
vt 0.192076 0.812264
vt 0.689641 0.850854
vt 0.708300 0.954573
vt 0.666490 0.927496
vt 0.657582 0.882276
vt 0.123986 0.776828
vt 0.163822 0.812925
vt 0.430773 0.770132
vt 0.498158 0.767096
vt 0.473250 0.804976
vt 0.443396 0.805834
vt 0.975742 0.130136
vt 0.997733 0.152536
vt 1.000000 0.183432
vt 0.911546 0.323883
vt 0.911546 0.215922
vt 0.951686 0.241705
vt 0.947771 0.305949
vt 0.654116 0.765233
vt 0.623505 0.801445
vt 0.596845 0.801654
vt 0.595183 0.765654
vt 0.623205 0.844554
vt 0.657582 0.864031
vt 0.648211 0.911733
vt 0.604495 0.948730
vt 0.295043 0.773158
vt 0.264443 0.811170
vt 0.238083 0.811995
vt 0.227886 0.776188
vt 0.566209 0.802443
vt 0.531768 0.766180
vt 0.975742 0.301707
vt 0.997733 0.279307
vt 1.000000 0.248411
vt 1.000000 0.431844
vt 0.963775 0.413910
vt 0.959861 0.349666
vt 1.000000 0.323883
vt 0.392297 0.771717
vt 0.451229 0.771288
vt 0.423117 0.807498
vt 0.397188 0.807668
vt 0.786999 0.850854
vt 0.805659 0.954573
vt 0.763849 0.927496
vt 0.754941 0.882276
vt 0.329097 0.772232
vt 0.368934 0.808329
vt 0.633661 0.765822
vt 0.701045 0.762785
vt 0.676137 0.800665
vt 0.646283 0.801524
vt 0.935804 0.409668
vt 0.913814 0.387268
vt 0.911546 0.356372
vt 0.852300 0.811868
vt 0.918850 0.844485
vt 0.900120 0.948733
vt 0.852300 0.958692
vt 0.852300 0.811868
vt 0.852300 0.958425
vt 0.197162 0.811995
vt 0.197162 0.958550
vt 0.150518 0.954697
vt 0.131856 0.850999
vt 0.556678 0.811868
vt 0.556678 0.958691
vt 0.754941 0.958425
vt 0.754941 0.811868
vt -0.000000 0.958819
vt -0.000000 0.811995
vt 0.066550 0.844612
vt 0.047820 0.948860
s 1
usemtl Material.001
f 7/1/1 19/2/2 18/3/3 6/4/4
f 4/5/5 16/6/6 15/7/7 3/8/8
f 11/9/9 23/10/10 22/11/11 10/12/12
f 8/13/13 20/14/14 19/2/2 7/1/1
f 5/15/15 17/16/16 16/6/6 4/5/5
f 12/17/17 24/18/18 23/19/10 11/20/9
f 2/21/19 14/22/20 13/23/21 1/24/22
f 9/25/23 21/26/24 20/27/14 8/28/13
f 6/4/4 18/3/3 17/29/16 5/30/15
f 1/24/22 13/23/21 24/18/18 12/17/17
f 3/8/8 15/7/7 14/31/20 2/32/19
f 10/12/12 22/11/11 21/26/24 9/25/23
f 17/16/16 29/33/25 28/34/26 16/6/6
f 24/18/18 36/35/27 35/36/28 23/19/10
f 14/22/20 26/37/29 25/38/30 13/23/21
f 21/26/24 33/39/31 32/40/32 20/27/14
f 18/3/3 30/41/33 29/42/25 17/29/16
f 13/23/21 25/38/30 36/35/27 24/18/18
f 15/7/7 27/43/34 26/44/29 14/31/20
f 22/11/11 34/45/35 33/39/31 21/26/24
f 19/2/2 31/46/36 30/41/33 18/3/3
f 16/6/6 28/34/26 27/43/34 15/7/7
f 23/10/10 35/47/28 34/45/35 22/11/11
f 20/14/14 32/48/32 31/46/36 19/2/2
f 29/33/25 41/49/37 40/50/38 28/34/26
f 36/35/27 48/51/39 47/52/40 35/36/28
f 26/37/29 38/53/41 37/54/42 25/38/30
f 33/39/31 45/55/43 44/56/44 32/40/32
f 30/41/33 42/57/45 41/58/37 29/42/25
f 25/38/30 37/54/42 48/51/39 36/35/27
f 27/43/34 39/59/46 38/60/41 26/44/29
f 34/45/35 46/61/47 45/55/43 33/39/31
f 31/46/36 43/62/48 42/57/45 30/41/33
f 28/34/26 40/50/38 39/59/46 27/43/34
f 35/47/28 47/63/40 46/61/47 34/45/35
f 32/48/32 44/64/44 43/62/48 31/46/36
f 44/64/44 56/65/49 55/66/50 43/62/48
f 41/49/37 53/67/51 52/68/52 40/50/38
f 48/51/39 60/69/53 59/70/54 47/52/40
f 38/53/41 50/71/55 49/72/56 37/54/42
f 45/55/43 57/73/57 56/74/49 44/56/44
f 42/57/45 54/75/58 53/76/51 41/58/37
f 37/54/42 49/72/56 60/69/53 48/51/39
f 39/59/46 51/77/59 50/78/55 38/60/41
f 46/61/47 58/79/60 57/73/57 45/55/43
f 43/62/48 55/66/50 54/75/58 42/57/45
f 40/50/38 52/68/52 51/77/59 39/59/46
f 47/63/40 59/80/54 58/79/60 46/61/47
f 56/65/49 68/81/61 67/82/62 55/66/50
f 53/67/51 65/83/63 64/84/64 52/68/52
f 60/69/53 72/85/65 71/86/66 59/70/54
f 50/71/55 62/87/67 61/88/68 49/72/56
f 57/73/57 69/89/69 68/90/61 56/74/49
f 54/75/58 66/91/70 65/92/63 53/76/51
f 49/72/56 61/88/68 72/85/65 60/69/53
f 51/77/59 63/93/71 62/94/67 50/78/55
f 58/79/60 70/95/72 69/89/69 57/73/57
f 55/66/50 67/82/62 66/91/70 54/75/58
f 52/68/52 64/84/64 63/93/71 51/77/59
f 59/80/54 71/96/66 70/95/72 58/79/60
f 64/97/64 76/98/73 75/99/74 63/100/71
f 71/101/66 83/102/75 82/103/76 70/104/72
f 68/105/61 80/106/77 79/107/78 67/108/62
f 65/109/63 77/110/79 76/98/73 64/97/64
f 72/111/65 84/112/80 83/102/75 71/101/66
f 62/113/67 74/114/81 73/115/82 61/116/68
f 69/117/69 81/118/83 80/106/77 68/105/61
f 66/119/70 78/120/84 77/110/79 65/109/63
f 61/116/68 73/115/82 84/112/80 72/111/65
f 63/100/71 75/99/74 74/114/81 62/113/67
f 70/104/72 82/103/76 81/118/83 69/117/69
f 67/108/62 79/107/78 78/120/84 66/119/70
f 76/121/73 88/122/85 87/123/86 75/124/74
f 83/125/75 95/126/87 94/127/88 82/128/76
f 80/129/77 92/130/89 91/131/90 79/132/78
f 77/133/79 89/134/91 88/122/85 76/121/73
f 84/135/80 96/136/92 95/137/87 83/138/75
f 74/139/81 86/140/93 85/141/94 73/142/82
f 81/143/83 93/144/95 92/145/89 80/146/77
f 78/147/84 90/148/96 89/149/91 77/150/79
f 73/142/82 85/141/94 96/136/92 84/135/80
f 75/124/74 87/123/86 86/151/93 74/152/81
f 82/128/76 94/127/88 93/144/95 81/143/83
f 79/132/78 91/131/90 90/148/96 78/147/84
f 87/153/86 97/154/97 86/155/93
f 94/156/88 97/154/97 93/157/95
f 91/158/90 97/154/97 90/159/96
f 88/160/85 97/154/97 87/153/86
f 95/161/87 97/154/97 94/156/88
f 92/162/89 97/154/97 91/158/90
f 89/163/91 97/154/97 88/160/85
f 96/164/92 97/154/97 95/161/87
f 86/155/93 97/154/97 85/165/94
f 93/157/95 97/154/97 92/162/89
f 90/159/96 97/154/97 89/163/91
f 85/165/94 97/154/97 96/164/92
f 5/30/15 104/166/98 103/167/99 6/4/4
f 12/17/17 109/168/100 108/169/101 1/24/22
f 2/32/19 107/170/102 106/171/103 3/8/8
f 9/25/23 100/172/104 99/173/105 10/12/12
f 6/4/4 103/167/99 102/174/106 7/1/1
f 3/8/8 106/171/103 105/175/107 4/5/5
f 10/12/12 99/173/105 98/176/108 11/9/9
f 7/1/1 102/174/106 101/177/109 8/13/13
f 4/5/5 105/175/107 104/178/98 5/15/15
f 11/20/9 98/179/108 109/168/100 12/17/17
f 1/24/22 108/169/101 107/180/102 2/21/19
f 8/28/13 101/181/109 100/172/104 9/25/23
f 109/168/100 121/182/110 120/183/111 108/169/101
f 104/166/98 116/184/112 115/185/113 103/167/99
f 101/181/109 113/186/114 112/187/115 100/172/104
f 108/169/101 120/183/111 119/188/116 107/180/102
f 98/179/108 110/189/117 121/182/110 109/168/100
f 105/175/107 117/190/118 116/191/112 104/178/98
f 102/174/106 114/192/119 113/193/114 101/177/109
f 99/173/105 111/194/120 110/195/117 98/176/108
f 106/171/103 118/196/121 117/190/118 105/175/107
f 103/167/99 115/185/113 114/192/119 102/174/106
f 100/172/104 112/187/115 111/194/120 99/173/105
f 107/170/102 119/197/116 118/196/121 106/171/103
f 111/198/120 123/199/122 127/200/123 122/201/124
f 113/186/114 125/202/125 124/203/126 112/187/115
f 114/192/119 126/204/127 125/205/125 113/193/114
f 112/187/115 124/203/126 123/206/122 111/194/120
f 114/207/119 122/208/124 127/209/123 126/210/127
f 126/211/127 127/212/123 132/213/128 131/214/129
f 125/202/125 130/215/130 129/216/131 124/203/126
f 123/199/122 128/217/132 132/218/128 127/200/123
f 126/204/127 131/219/129 130/220/130 125/205/125
f 124/203/126 129/216/131 128/221/132 123/206/122
f 130/222/130 132/213/128 129/223/131
f 131/214/129 132/213/128 130/222/130
f 129/223/131 132/213/128 128/224/132
f 136/225/133 141/226/134 142/227/135 137/228/136
f 135/229/137 134/230/138 139/231/139 140/232/140
f 133/233/141 137/234/136 142/235/135 138/236/142
f 136/237/133 135/229/137 140/232/140 141/238/134
f 134/239/138 133/240/141 138/241/142 139/242/139
f 140/243/140 139/244/139 142/227/135
f 141/226/134 140/243/140 142/227/135
f 139/244/139 138/245/142 142/227/135
f 146/246/143 147/247/144 152/248/145 151/249/146
f 145/250/147 150/251/148 149/252/149 144/253/150
f 143/254/151 148/255/152 152/256/145 147/257/144
f 146/258/143 151/259/146 150/260/148 145/261/147
f 144/253/150 149/252/149 148/262/152 143/263/151
f 150/264/148 152/248/145 149/265/149
f 151/249/146 152/248/145 150/264/148
f 149/265/149 152/248/145 148/266/152
f 156/267/153 161/268/154 162/269/155 157/270/156
f 155/271/157 154/272/158 159/273/159 160/274/160
f 153/275/161 157/276/156 162/277/155 158/278/162
f 156/279/153 155/271/157 160/274/160 161/280/154
f 154/281/158 153/282/161 158/283/162 159/284/159
f 160/285/160 159/286/159 162/269/155
f 161/268/154 160/285/160 162/269/155
f 159/286/159 158/287/162 162/269/155
f 120/288/111 156/289/153 157/290/156 122/291/124
f 120/183/111 121/182/110 155/271/157 156/279/153
f 121/182/110 110/189/117 154/272/158 155/271/157
f 111/292/120 122/293/124 157/276/156 153/275/161
f 110/195/117 111/194/120 153/282/161 154/281/158
f 120/294/111 122/295/124 147/296/144 146/297/143
f 120/183/111 146/258/143 145/261/147 119/188/116
f 119/197/116 145/250/147 144/253/150 118/196/121
f 117/298/118 143/254/151 147/257/144 122/299/124
f 118/196/121 144/253/150 143/263/151 117/190/118
f 122/300/124 137/234/136 133/233/141 117/301/118
f 122/302/124 114/303/119 136/304/133 137/305/136
f 114/192/119 115/185/113 135/229/137 136/237/133
f 115/185/113 116/184/112 134/230/138 135/229/137
f 116/191/112 117/190/118 133/240/141 134/239/138
